<?xml version="1.0" encoding="us-ascii" standalone="no"?><svg xmlns="http://www.w3.org/2000/svg" xmlns:xlink="http://www.w3.org/1999/xlink" contentStyleType="text/css" height="464px" preserveAspectRatio="none" style="width:1040px;height:464px;background:#FFFFFF;" version="1.1" viewBox="0 0 1040 464" width="1040px" zoomAndPan="magnify"><defs/><g><!--cluster iphone--><g id="cluster_iphone"><path d="M8.5,6 L63.5,6 A3.75,3.75 0 0 1 66,8.5 L73,28.2969 L1030.5,28.2969 A2.5,2.5 0 0 1 1033,30.7969 L1033,454.95 A2.5,2.5 0 0 1 1030.5,457.45 L8.5,457.45 A2.5,2.5 0 0 1 6,454.95 L6,8.5 A2.5,2.5 0 0 1 8.5,6 " fill="none" style="stroke:#000000;stroke-width:1.5;"/><line style="stroke:#000000;stroke-width:1.5;" x1="6" x2="73" y1="28.2969" y2="28.2969"/><text fill="#000000" font-family="sans-serif" font-size="14" font-weight="bold" lengthAdjust="spacing" textLength="54" x="10" y="20.9951">iphone</text></g><!--class Equipamento--><g id="elem_Equipamento"><rect codeLine="2" fill="#F1F1F1" height="64.2969" id="Equipamento" rx="2.5" ry="2.5" style="stroke:#181818;stroke-width:0.5;" width="190" x="22" y="57.29"/><ellipse cx="66.75" cy="73.29" fill="#ADD1B2" rx="11" ry="11" style="stroke:#181818;stroke-width:1.0;"/><path d="M69.7188,78.9306 Q69.1406,79.2275 68.5,79.3681 Q67.8594,79.5244 67.1563,79.5244 Q64.6563,79.5244 63.3281,77.8837 Q62.0156,76.2275 62.0156,73.1025 Q62.0156,69.9775 63.3281,68.3212 Q64.6563,66.665 67.1563,66.665 Q67.8594,66.665 68.5,66.8212 Q69.1563,66.9775 69.7188,67.2744 L69.7188,69.9931 Q69.0938,69.415 68.5,69.1494 Q67.9063,68.8681 67.2813,68.8681 Q65.9375,68.8681 65.25,69.9462 Q64.5625,71.0087 64.5625,73.1025 Q64.5625,75.1962 65.25,76.2744 Q65.9375,77.3369 67.2813,77.3369 Q67.9063,77.3369 68.5,77.0712 Q69.0938,76.79 69.7188,76.2119 L69.7188,78.9306 Z " fill="#000000"/><text fill="#000000" font-family="sans-serif" font-size="14" lengthAdjust="spacing" textLength="92" x="87.25" y="78.1367">Equipamento</text><line style="stroke:#181818;stroke-width:0.5;" x1="23" x2="211" y1="89.29" y2="89.29"/><line style="stroke:#181818;stroke-width:0.5;" x1="23" x2="211" y1="97.29" y2="97.29"/><ellipse cx="33" cy="110.9384" fill="#84BE84" rx="3" ry="3" style="stroke:#038048;stroke-width:1.0;"/><text fill="#000000" font-family="sans-serif" font-size="14" lengthAdjust="spacing" textLength="164" x="42" y="114.2851">main(String[] args): void</text></g><!--class ReprodutorMusical--><g id="elem_ReprodutorMusical"><rect codeLine="6" fill="#F1F1F1" height="96.8906" id="ReprodutorMusical" rx="2.5" ry="2.5" style="stroke:#181818;stroke-width:0.5;" width="285" x="246.5" y="41"/><ellipse cx="319.75" cy="57" fill="#B4A7E5" rx="11" ry="11" style="stroke:#181818;stroke-width:1.0;"/><path d="M315.6719,52.7656 L315.6719,50.6094 L323.0625,50.6094 L323.0625,52.7656 L320.5938,52.7656 L320.5938,60.8438 L323.0625,60.8438 L323.0625,63 L315.6719,63 L315.6719,60.8438 L318.1406,60.8438 L318.1406,52.7656 L315.6719,52.7656 Z " fill="#000000"/><text fill="#000000" font-family="sans-serif" font-size="14" font-style="italic" lengthAdjust="spacing" textLength="130" x="340.25" y="61.8467">ReprodutorMusical</text><line style="stroke:#181818;stroke-width:0.5;" x1="247.5" x2="530.5" y1="73" y2="73"/><line style="stroke:#181818;stroke-width:0.5;" x1="247.5" x2="530.5" y1="81" y2="81"/><ellipse cx="257.5" cy="94.6484" fill="#84BE84" rx="3" ry="3" style="stroke:#038048;stroke-width:1.0;"/><text fill="#000000" font-family="sans-serif" font-size="14" lengthAdjust="spacing" textLength="82" x="266.5" y="97.9951">tocar(): void</text><ellipse cx="257.5" cy="110.9453" fill="#84BE84" rx="3" ry="3" style="stroke:#038048;stroke-width:1.0;"/><text fill="#000000" font-family="sans-serif" font-size="14" lengthAdjust="spacing" textLength="94" x="266.5" y="114.292">pausar(): void</text><ellipse cx="257.5" cy="127.2422" fill="#84BE84" rx="3" ry="3" style="stroke:#038048;stroke-width:1.0;"/><text fill="#000000" font-family="sans-serif" font-size="14" lengthAdjust="spacing" textLength="259" x="266.5" y="130.5889">selecionarMusica(String musica): void</text></g><!--class NavegadorInternet--><g id="elem_NavegadorInternet"><rect codeLine="12" fill="#F1F1F1" height="96.8906" id="NavegadorInternet" rx="2.5" ry="2.5" style="stroke:#181818;stroke-width:0.5;" width="216" x="566" y="41"/><ellipse cx="606.2" cy="57" fill="#B4A7E5" rx="11" ry="11" style="stroke:#181818;stroke-width:1.0;"/><path d="M602.1219,52.7656 L602.1219,50.6094 L609.5125,50.6094 L609.5125,52.7656 L607.0438,52.7656 L607.0438,60.8438 L609.5125,60.8438 L609.5125,63 L602.1219,63 L602.1219,60.8438 L604.5906,60.8438 L604.5906,52.7656 L602.1219,52.7656 Z " fill="#000000"/><text fill="#000000" font-family="sans-serif" font-size="14" font-style="italic" lengthAdjust="spacing" textLength="128" x="625.8" y="61.8467">NavegadorInternet</text><line style="stroke:#181818;stroke-width:0.5;" x1="567" x2="781" y1="73" y2="73"/><line style="stroke:#181818;stroke-width:0.5;" x1="567" x2="781" y1="81" y2="81"/><ellipse cx="577" cy="94.6484" fill="#84BE84" rx="3" ry="3" style="stroke:#038048;stroke-width:1.0;"/><text fill="#000000" font-family="sans-serif" font-size="14" lengthAdjust="spacing" textLength="190" x="586" y="97.9951">exibirPagina(String url): void</text><ellipse cx="577" cy="110.9453" fill="#84BE84" rx="3" ry="3" style="stroke:#038048;stroke-width:1.0;"/><text fill="#000000" font-family="sans-serif" font-size="14" lengthAdjust="spacing" textLength="169" x="586" y="114.292">adicionarNovaAba(): void</text><ellipse cx="577" cy="127.2422" fill="#84BE84" rx="3" ry="3" style="stroke:#038048;stroke-width:1.0;"/><text fill="#000000" font-family="sans-serif" font-size="14" lengthAdjust="spacing" textLength="150" x="586" y="130.5889">atualizarPagina(): void</text></g><!--class AparelhoTelefonico--><g id="elem_AparelhoTelefonico"><rect codeLine="18" fill="#F1F1F1" height="96.8906" id="AparelhoTelefonico" rx="2.5" ry="2.5" style="stroke:#181818;stroke-width:0.5;" width="199" x="817.5" y="41"/><ellipse cx="847.8" cy="57" fill="#B4A7E5" rx="11" ry="11" style="stroke:#181818;stroke-width:1.0;"/><path d="M843.7219,52.7656 L843.7219,50.6094 L851.1125,50.6094 L851.1125,52.7656 L848.6438,52.7656 L848.6438,60.8438 L851.1125,60.8438 L851.1125,63 L843.7219,63 L843.7219,60.8438 L846.1906,60.8438 L846.1906,52.7656 L843.7219,52.7656 Z " fill="#000000"/><text fill="#000000" font-family="sans-serif" font-size="14" font-style="italic" lengthAdjust="spacing" textLength="133" x="865.2" y="61.8467">AparelhoTelefonico</text><line style="stroke:#181818;stroke-width:0.5;" x1="818.5" x2="1015.5" y1="73" y2="73"/><line style="stroke:#181818;stroke-width:0.5;" x1="818.5" x2="1015.5" y1="81" y2="81"/><ellipse cx="828.5" cy="94.6484" fill="#84BE84" rx="3" ry="3" style="stroke:#038048;stroke-width:1.0;"/><text fill="#000000" font-family="sans-serif" font-size="14" lengthAdjust="spacing" textLength="173" x="837.5" y="97.9951">ligar(String numero): void</text><ellipse cx="828.5" cy="110.9453" fill="#84BE84" rx="3" ry="3" style="stroke:#038048;stroke-width:1.0;"/><text fill="#000000" font-family="sans-serif" font-size="14" lengthAdjust="spacing" textLength="101" x="837.5" y="114.292">atender(): void</text><ellipse cx="828.5" cy="127.2422" fill="#84BE84" rx="3" ry="3" style="stroke:#038048;stroke-width:1.0;"/><text fill="#000000" font-family="sans-serif" font-size="14" lengthAdjust="spacing" textLength="162" x="837.5" y="130.5889">iniciarCorreioVoz(): void</text></g><!--class Iphone--><g id="elem_Iphone"><rect codeLine="24" fill="#F1F1F1" height="243.5625" id="Iphone" rx="2.5" ry="2.5" style="stroke:#181818;stroke-width:0.5;" width="285" x="531.5" y="197.89"/><ellipse cx="645.75" cy="213.89" fill="#ADD1B2" rx="11" ry="11" style="stroke:#181818;stroke-width:1.0;"/><path d="M648.7188,219.5306 Q648.1406,219.8275 647.5,219.9681 Q646.8594,220.1244 646.1563,220.1244 Q643.6563,220.1244 642.3281,218.4838 Q641.0156,216.8275 641.0156,213.7025 Q641.0156,210.5775 642.3281,208.9213 Q643.6563,207.265 646.1563,207.265 Q646.8594,207.265 647.5,207.4213 Q648.1563,207.5775 648.7188,207.8744 L648.7188,210.5931 Q648.0938,210.015 647.5,209.7494 Q646.9063,209.4681 646.2813,209.4681 Q644.9375,209.4681 644.25,210.5463 Q643.5625,211.6088 643.5625,213.7025 Q643.5625,215.7963 644.25,216.8744 Q644.9375,217.9369 646.2813,217.9369 Q646.9063,217.9369 647.5,217.6713 Q648.0938,217.39 648.7188,216.8119 L648.7188,219.5306 Z " fill="#000000"/><text fill="#000000" font-family="sans-serif" font-size="14" lengthAdjust="spacing" textLength="48" x="666.25" y="218.7367">Iphone</text><line style="stroke:#181818;stroke-width:0.5;" x1="532.5" x2="815.5" y1="229.89" y2="229.89"/><rect fill="none" height="6" style="stroke:#C82930;stroke-width:1.0;" width="6" x="539.5" y="240.5384"/><text fill="#000000" font-family="sans-serif" font-size="14" lengthAdjust="spacing" textLength="98" x="551.5" y="246.8851">String numero</text><rect fill="none" height="6" style="stroke:#C82930;stroke-width:1.0;" width="6" x="539.5" y="256.8353"/><text fill="#000000" font-family="sans-serif" font-size="14" lengthAdjust="spacing" textLength="61" x="551.5" y="263.182">String url</text><rect fill="none" height="6" style="stroke:#C82930;stroke-width:1.0;" width="6" x="539.5" y="273.1322"/><text fill="#000000" font-family="sans-serif" font-size="14" lengthAdjust="spacing" textLength="93" x="551.5" y="279.4789">String musica</text><line style="stroke:#181818;stroke-width:0.5;" x1="532.5" x2="815.5" y1="286.7806" y2="286.7806"/><ellipse cx="542.5" cy="300.4291" fill="#84BE84" rx="3" ry="3" style="stroke:#038048;stroke-width:1.0;"/><text fill="#000000" font-family="sans-serif" font-size="14" lengthAdjust="spacing" textLength="190" x="551.5" y="303.7757">exibirPagina(String url): void</text><ellipse cx="542.5" cy="316.7259" fill="#84BE84" rx="3" ry="3" style="stroke:#038048;stroke-width:1.0;"/><text fill="#000000" font-family="sans-serif" font-size="14" lengthAdjust="spacing" textLength="169" x="551.5" y="320.0726">adicionarNovaAba(): void</text><ellipse cx="542.5" cy="333.0228" fill="#84BE84" rx="3" ry="3" style="stroke:#038048;stroke-width:1.0;"/><text fill="#000000" font-family="sans-serif" font-size="14" lengthAdjust="spacing" textLength="150" x="551.5" y="336.3695">atualizarPagina(): void</text><ellipse cx="542.5" cy="349.3197" fill="#84BE84" rx="3" ry="3" style="stroke:#038048;stroke-width:1.0;"/><text fill="#000000" font-family="sans-serif" font-size="14" lengthAdjust="spacing" textLength="173" x="551.5" y="352.6664">ligar(String numero): void</text><ellipse cx="542.5" cy="365.6166" fill="#84BE84" rx="3" ry="3" style="stroke:#038048;stroke-width:1.0;"/><text fill="#000000" font-family="sans-serif" font-size="14" lengthAdjust="spacing" textLength="101" x="551.5" y="368.9632">atender(): void</text><ellipse cx="542.5" cy="381.9134" fill="#84BE84" rx="3" ry="3" style="stroke:#038048;stroke-width:1.0;"/><text fill="#000000" font-family="sans-serif" font-size="14" lengthAdjust="spacing" textLength="162" x="551.5" y="385.2601">iniciarCorreioVoz(): void</text><ellipse cx="542.5" cy="398.2103" fill="#84BE84" rx="3" ry="3" style="stroke:#038048;stroke-width:1.0;"/><text fill="#000000" font-family="sans-serif" font-size="14" lengthAdjust="spacing" textLength="82" x="551.5" y="401.557">tocar(): void</text><ellipse cx="542.5" cy="414.5072" fill="#84BE84" rx="3" ry="3" style="stroke:#038048;stroke-width:1.0;"/><text fill="#000000" font-family="sans-serif" font-size="14" lengthAdjust="spacing" textLength="94" x="551.5" y="417.8539">pausar(): void</text><ellipse cx="542.5" cy="430.8041" fill="#84BE84" rx="3" ry="3" style="stroke:#038048;stroke-width:1.0;"/><text fill="#000000" font-family="sans-serif" font-size="14" lengthAdjust="spacing" textLength="259" x="551.5" y="434.1507">selecionarMusica(String musica): void</text></g><!--reverse link ReprodutorMusical to Iphone--><g id="link_ReprodutorMusical_Iphone"><path d="M462.7983,149.5437 C487.0283,168.9537 502.11,181.02 531.25,204.36 " fill="none" id="ReprodutorMusical-backto-Iphone" style="stroke:#181818;stroke-width:1.0;stroke-dasharray:7.0,7.0;"/><polygon fill="none" points="448.75,138.29,459.047,154.2265,466.5495,144.8609,448.75,138.29" style="stroke:#181818;stroke-width:1.0;"/></g><!--reverse link AparelhoTelefonico to Iphone--><g id="link_AparelhoTelefonico_Iphone"><path d="M852.9373,150.6105 C834.2873,168.1205 825.37,176.5 802.98,197.53 " fill="none" id="AparelhoTelefonico-backto-Iphone" style="stroke:#181818;stroke-width:1.0;stroke-dasharray:7.0,7.0;"/><polygon fill="none" points="866.06,138.29,848.8305,146.2363,857.0442,154.9848,866.06,138.29" style="stroke:#181818;stroke-width:1.0;"/></g><!--reverse link NavegadorInternet to Iphone--><g id="link_NavegadorInternet_Iphone"><path d="M674,156.29 C674,173.8 674,176.5 674,197.53 " fill="none" id="NavegadorInternet-backto-Iphone" style="stroke:#181818;stroke-width:1.0;stroke-dasharray:7.0,7.0;"/><polygon fill="none" points="674,138.29,668,156.29,680,156.29,674,138.29" style="stroke:#181818;stroke-width:1.0;"/></g><!--SRC=[nPBDJWCX58NtVGgMDTONSDSO5rtOc6hS61Utp2sz4RXuWOcfwRixVnedGsPPsH0EvF1n3W7qEnXK58xiKNqjL3EqXHZL_KUc00vzua5lnxLoG7xvb8IyUNrJ82PUtQgQgUhEd1VTH3wX742Zsc4Ghd9YUSYHDDYHMM8DilnhqEi1SYnkHBIeYJqCTWE9SjrgbcGBDHgeM3Qjv36DIF2JzYIFOCZ_ccQnKmAeg0VOSWthFHGW8MMmT88VkrciTG11U-JdvcK7zgJ7SLioJH03aCyEXKiNeg-mb1SrXWHono98_CAd4anV-AR_0-I2nRRsEErkLQ1TpGPxeqReKxt9U2hsRVv3EnV8_08V__mD]--></g></svg>